<svg width="51" height="28" viewBox="0 0 51 28" fill="none" xmlns="http://www.w3.org/2000/svg">
<path d="M13.457 8C11.9769 8.04811 10.5755 8.66108 9.55488 9.70678C8.53424 10.7525 7.9761 12.1472 8.00079 13.5902C8.02547 15.0332 8.631 16.409 9.68684 17.4209C10.7427 18.4329 12.1643 19 13.6452 19C15.1261 19 16.5476 18.4329 17.6035 17.4209C18.6593 16.409 19.2649 15.0332 19.2895 13.5902C19.3142 12.1472 18.7561 10.7525 17.7354 9.70678C16.7148 8.66108 15.3134 8.04811 13.8333 8H13.457ZM21.3602 8C19.8801 8.04811 18.4787 8.66108 17.4581 9.70678C16.4375 10.7525 15.8793 12.1472 15.904 13.5902C15.9287 15.0332 16.5342 16.409 17.5901 17.4209C18.6459 18.4329 20.0675 19 21.5484 19C23.0293 19 24.4509 18.4329 25.5067 17.4209C26.5626 16.409 27.1681 15.0332 27.1928 13.5902C27.2174 12.1472 26.6593 10.7525 25.6387 9.70678C24.618 8.66108 23.2166 8.04811 21.7366 8H21.3602ZM29.2634 8C27.7834 8.04811 26.382 8.66108 25.3613 9.70678C24.3407 10.7525 23.7826 12.1472 23.8072 13.5902C23.8319 15.0332 24.4374 16.409 25.4933 17.4209C26.5491 18.4329 27.9707 19 29.4516 19C30.9325 19 32.3541 18.4329 33.4099 17.4209C34.4658 16.409 35.0713 15.0332 35.096 13.5902C35.1207 12.1472 34.5625 10.7525 33.5419 9.70678C32.5213 8.66108 31.1199 8.04811 29.6398 8H29.2634ZM37.1667 8C35.6866 8.04811 34.2852 8.66108 33.2646 9.70678C32.2439 10.7525 31.6858 12.1472 31.7105 13.5902C31.7351 15.0332 32.3407 16.409 33.3965 17.4209C34.4524 18.4329 35.8739 19 37.3548 19C38.8357 19 40.2573 18.4329 41.3132 17.4209C42.369 16.409 42.9745 15.0332 42.9992 13.5902C43.0239 12.1472 42.4658 10.7525 41.4451 9.70678C40.4245 8.66108 39.0231 8.04811 37.543 8H37.1667Z" stroke="#7B7B7B" stroke-width="2"/>
</svg>
