<svg width="51" height="28" viewBox="0 0 51 28" fill="none" xmlns="http://www.w3.org/2000/svg">
<path d="M36.4396 24.876C36.475 24.9189 36.5193 24.9516 36.5686 24.971C36.6179 24.9905 36.6706 24.9963 36.7224 24.9878C36.9359 24.9592 36.9412 24.5962 36.9412 24.5962C36.9412 24.5962 36.9915 23.7717 36.9915 22.9372C36.9915 21.8926 36.2599 20.9724 36.2599 20.9724C36.2599 20.9724 28.6569 11.6131 25.995 11.6131C23.3331 11.6131 15.7324 20.9724 15.7324 20.9724C15.7324 20.9724 15 21.8926 15 22.9372C15 23.7692 15.0504 24.5962 15.0504 24.5962C15.0504 24.5962 15.0579 24.9592 15.27 24.9878C15.322 24.9959 15.375 24.99 15.4246 24.9705C15.4742 24.9511 15.5189 24.9187 15.5549 24.876C16.4046 24.0499 23.1872 17.5437 25.9965 17.5437C28.8058 17.5437 35.5892 24.0499 36.4396 24.876Z" fill="#7B7B7B"/>
<path d="M15.2684 16.3747C15.3202 16.3826 15.3728 16.377 15.4223 16.3583C15.4717 16.3397 15.5166 16.3084 15.5534 16.2671C16.4031 15.4435 23.1857 8.93141 25.995 8.93141C28.8043 8.93141 35.5892 15.4435 36.4396 16.2671C36.4758 16.3087 36.5203 16.3401 36.5694 16.3588C36.6186 16.3775 36.671 16.3829 36.7224 16.3747C36.9359 16.352 36.9412 15.9881 36.9412 15.9881C36.9412 15.9881 36.9915 15.1595 36.9915 14.3267C36.9915 13.277 36.2599 12.3602 36.2599 12.3602C36.2599 12.3602 28.6569 3 25.995 3C23.3331 3 15.7324 12.3602 15.7324 12.3602C15.7324 12.3602 15 13.277 15 14.3267C15 15.1595 15.0504 15.9881 15.0504 15.9881C15.0504 15.9881 15.0564 16.352 15.2684 16.3747Z" fill="#7B7B7B"/>
</svg>
