<svg width="51" height="28" viewBox="0 0 51 28" fill="none" xmlns="http://www.w3.org/2000/svg">
<path d="M23.7405 5.01737L23.7266 22.3655H26.068L26.0853 14.5321H28.6907C28.9234 15.9633 28.9477 21.8688 28.9477 22.3308V22.369H31.3377C31.4107 17.9607 31.3725 9.76257 28.9061 5.02084H23.7405V5.01737ZM26.061 12.5138V6.99743H27.2907H27.3185C27.784 7.9701 28.0897 9.37698 28.2808 10.4226C28.4823 11.5585 28.5865 12.5138 28.5865 12.5138H26.061ZM19.9124 22.3725L22.5073 22.369V5.02084L19.9367 5.02779L19.9124 22.3725ZM14 22.3551L16.5671 22.3725L16.588 14.5147H18.4742V12.4999H16.588V7.0148H19.0196V5H14.0035L14 22.3551ZM30.6985 5.01737V7.02175H32.5535L32.5605 22.3655H35.1276L35.1207 7.02175H37V5.00347L30.6985 5.01737Z" fill="#7B7B7B"/>
</svg>
