<svg width="51" height="28" viewBox="0 0 51 28" fill="none" xmlns="http://www.w3.org/2000/svg">
<path d="M25.2269 20.9869C14.0557 20.9869 5 17.8559 5 13.9935C5 10.1305 14.0558 7 25.2269 7C36.3969 7 45.4523 10.1305 45.4523 13.9935C45.4523 17.8559 36.3969 20.9869 25.2269 20.9869ZM25.2269 7.60567C14.4482 7.60567 5.71126 10.465 5.71126 13.9935C5.71126 17.5219 14.4482 20.3817 25.2269 20.3817C36.0055 20.3817 44.7418 17.5219 44.7418 13.9935C44.7418 10.465 36.0055 7.60567 25.2269 7.60567Z" fill="#7B7B7B"/>
<path d="M37.8208 11.7052C37.8487 11.6565 37.8193 11.6208 37.7574 11.6208C37.4344 11.6208 37.0107 11.6216 36.6742 11.6216C36.5939 11.6216 36.5525 11.6313 36.5147 11.7052C36.3905 11.9417 34.8766 14.1954 34.5948 14.6331C34.5474 14.6998 34.4894 14.6906 34.4827 14.6147C34.4542 14.3547 34.2282 14.0559 33.8722 13.913C33.6009 13.8036 33.3355 13.7838 33.0598 13.8202C32.562 13.8865 32.1183 14.1477 31.7283 14.4418C31.1405 14.8858 30.6334 15.4611 29.9787 15.8863C29.6213 16.1176 29.132 16.3194 28.8046 16.0182C28.5082 15.7453 28.5416 15.1389 28.995 14.6701C29.0429 14.621 29.1001 14.662 29.0911 14.7062C29.0484 14.9183 29.101 15.1292 29.2629 15.277C29.4608 15.4531 29.7438 15.4731 29.9861 15.3556C30.272 15.2149 30.4401 14.9431 30.4891 14.6346C30.565 14.156 30.1941 13.7339 29.7302 13.7002C29.3533 13.6739 28.9919 13.8041 28.6397 14.093C28.4633 14.2384 28.3628 14.346 28.2102 14.5617C28.173 14.6147 28.1158 14.6202 28.1176 14.5418C28.1353 13.9291 27.8801 13.5844 27.3702 13.5731C26.9746 13.5638 26.5517 13.777 26.2221 14.038C25.8609 14.3262 25.545 14.7082 25.2066 15.0671C25.1644 15.1113 25.1276 15.1092 25.1158 15.0234C25.1056 14.6175 25.0029 14.2243 24.8138 13.9452C24.7469 13.848 24.6061 13.7999 24.4878 13.8656C24.4332 13.8953 24.2429 13.9821 24.1046 14.0929C24.0359 14.1491 24.0093 14.2303 24.0394 14.3347C24.2221 14.941 24.1818 15.6305 23.9343 16.2129C23.7069 16.7462 23.2649 17.2274 22.7455 17.3901C22.4033 17.4978 22.0474 17.4451 21.8274 17.1437C21.525 16.7277 21.6471 16.0044 22.0977 15.4037C22.4955 14.8749 23.0707 14.5389 23.6446 14.3225C23.7121 14.2967 23.726 14.2536 23.7069 14.1966C23.6757 14.1027 23.6261 13.9753 23.6056 13.9169C23.553 13.7779 23.4056 13.7552 23.2258 13.7747C22.8089 13.8229 22.4327 13.9648 22.0612 14.1624C21.0884 14.6799 20.6006 15.6817 20.3868 16.2176C20.2839 16.4748 20.1959 16.6356 20.0821 16.778C19.9287 16.9695 19.7363 17.1437 19.3841 17.4509C19.3523 17.4791 19.3286 17.5379 19.3553 17.5924C19.3913 17.6664 19.5743 17.9232 19.626 17.9461C19.6834 17.9741 19.7499 17.935 19.7765 17.9159C20.0229 17.75 20.3175 17.4872 20.4618 17.3088C20.5124 17.2478 20.5643 17.2734 20.5911 17.3661C20.7258 17.8432 21.0783 18.2327 21.5656 18.3956C22.4577 18.6945 23.383 18.2618 24.0814 17.5088C24.5253 17.0302 24.6854 16.7224 24.8554 16.5131C25.1437 16.1582 25.7125 15.3643 26.3898 14.8545C26.6382 14.6666 26.9323 14.5233 27.0801 14.6184C27.1987 14.6947 27.2371 14.8723 27.0467 15.2163C26.3561 16.4691 25.3399 17.9411 25.1535 18.2981C25.1195 18.3601 25.1491 18.4088 25.2144 18.4088C25.5757 18.407 25.9341 18.4079 26.2621 18.4079C26.3167 18.4053 26.3412 18.3806 26.3685 18.3423C26.8985 17.5181 27.3974 16.7335 27.932 15.9225C27.9619 15.8747 27.9896 15.9117 27.9907 15.9326C28.0018 16.1208 28.0483 16.3782 28.1607 16.5472C28.3627 16.8597 28.6492 16.994 28.9668 16.996C29.2195 16.9989 29.3473 16.9607 29.6199 16.8597C29.8417 16.778 30.0197 16.6706 30.1564 16.5736C30.2362 16.5186 30.2502 16.6107 30.2481 16.6249C30.1256 17.2792 30.2769 18.0545 30.9316 18.3759C31.7149 18.7596 32.5756 18.2204 33.0708 17.7335C33.1192 17.6866 33.1713 17.6915 33.1762 17.7926C33.1867 17.9784 33.2712 18.1991 33.426 18.3534C33.841 18.7672 34.6784 18.6033 35.5187 17.9571C36.0583 17.5433 36.6229 16.9588 37.1329 16.3398C37.1518 16.316 37.1659 16.2772 37.1294 16.2384C37.0518 16.1577 36.9393 16.0652 36.8624 15.994C36.8272 15.9645 36.7758 15.973 36.7461 15.9952C36.2234 16.4891 35.7528 17.0523 35.0727 17.5181C34.8434 17.6771 34.4779 17.8054 34.3137 17.5847C34.2498 17.4991 34.257 17.3803 34.3201 17.2248C34.5186 16.7334 37.6578 11.9853 37.8208 11.7052V11.7052ZM33.6711 15.6871C33.6775 15.7235 33.7252 15.7586 33.772 15.7753C33.7883 15.7813 33.7976 15.7932 33.779 15.8313C33.6454 16.1155 33.5227 16.2794 33.3554 16.5263C33.2016 16.7545 33.0282 16.9325 32.8183 17.1037C32.5017 17.364 32.062 17.6474 31.6984 17.4568C31.5369 17.3735 31.4672 17.1491 31.4704 16.9673C31.4788 16.4563 31.7069 15.9316 32.1294 15.416C32.6446 14.786 33.2141 14.4592 33.5878 14.6379C33.9745 14.8212 33.8511 15.2659 33.6781 15.6151C33.6651 15.642 33.6643 15.665 33.6711 15.6871Z" fill="#7B7B7B"/>
<path d="M15.0494 18.39C13.8788 18.3984 12.8476 17.6796 12.7293 16.4355C12.6635 15.7461 12.8597 15.1317 13.2523 14.6256C13.6007 14.1746 14.1903 13.7999 14.6894 13.7084C14.8519 13.6788 15.0701 13.6976 15.1602 13.8044C15.3018 13.968 15.261 14.1477 15.1197 14.2194C14.7389 14.4126 14.2807 14.7432 14.0541 15.1945C13.87 15.563 13.8329 16.0072 14.1138 16.4302C14.584 17.1353 15.8942 17.1547 17.1126 16.0302C17.4142 15.7551 17.6843 15.4907 17.9587 15.1775C18.4953 14.568 18.6737 14.3459 19.387 13.3629C19.3956 13.3517 19.3979 13.3367 19.3942 13.3295C19.3883 13.3169 19.3783 13.3134 19.3575 13.3122C18.8815 13.3252 18.4662 13.4662 18.0629 13.7659C17.9466 13.85 17.7795 13.8381 17.7062 13.7274C17.6248 13.6022 17.6831 13.4389 17.8173 13.3469C18.4663 12.8984 19.1754 12.8171 19.8996 12.6956C19.899 12.6956 19.95 12.698 19.9913 12.6433C20.2885 12.2644 20.5131 11.9225 20.8299 11.5392C21.1491 11.1503 21.5617 10.7933 21.8768 10.525C22.3167 10.1492 22.5987 10.0229 22.8854 9.86777C22.9608 9.82873 22.8756 9.78171 22.8528 9.78171C21.2521 9.48294 19.5886 9.09626 17.9988 9.68093C16.8981 10.0891 16.4157 10.9564 16.6478 11.5359C16.8127 11.9469 17.357 12.0137 17.8665 11.766C18.2897 11.56 18.6811 11.2282 18.9588 10.8007C19.1143 10.5634 19.4414 10.7346 19.2647 11.1467C18.7996 12.2329 17.9109 13.0944 16.8284 13.1306C15.9073 13.1604 15.3129 12.4872 15.3148 11.6565C15.3182 10.0183 17.1545 8.93915 19.0837 8.77782C21.4073 8.58707 23.6079 9.20184 25.915 9.47991C27.6825 9.69247 29.3772 9.69705 31.1537 9.29145C31.3637 9.2462 31.5112 9.37928 31.4975 9.58999C31.4801 9.89468 31.2427 10.188 30.6575 10.5051C29.992 10.8677 29.2959 10.9776 28.5688 10.9835C26.8106 10.998 25.1728 10.3172 23.4781 9.95139C23.4805 10.025 23.4996 10.1131 23.4374 10.1594C22.4987 10.8474 21.6501 11.5459 21.0817 12.5269C21.0625 12.5496 21.0729 12.5713 21.106 12.5689C21.5995 12.5429 22.0433 12.5302 22.504 12.4936C22.5844 12.487 22.5874 12.4671 22.5803 12.4086C22.5397 12.0704 22.639 11.6849 22.9385 11.4196C23.2449 11.1465 23.6288 11.1155 23.883 11.3122C24.1724 11.5361 24.1468 11.9387 23.9885 12.2407C23.8275 12.5472 23.5616 12.7108 23.3062 12.7905C23.3062 12.7905 23.2529 12.8022 23.2606 12.8504C23.2708 12.9278 23.6185 13.1193 23.6483 13.1703C23.6769 13.2188 23.6623 13.294 23.6093 13.3516C23.5723 13.3935 23.5148 13.433 23.441 13.4315C23.3812 13.4303 23.3449 13.4098 23.2689 13.3688C23.1126 13.2847 22.9177 13.1467 22.7877 12.984C22.7432 12.9289 22.7209 12.9278 22.6101 12.9337C22.1116 12.9623 21.3342 13.0369 20.8075 13.1023C20.68 13.1181 20.6611 13.1417 20.6349 13.1857C19.7953 14.5612 18.8987 16.0445 17.9145 17.0376C16.8586 18.1025 15.981 18.3828 15.0494 18.39H15.0494ZM23.0507 12.278C23.064 12.3486 23.0917 12.3622 23.1238 12.3563C23.2837 12.3245 23.4589 12.1937 23.5622 12.0424C23.6568 11.9051 23.701 11.7068 23.6074 11.6274C23.5235 11.5561 23.3875 11.5763 23.2867 11.6648C23.0859 11.841 23.0247 12.0913 23.0507 12.278Z" fill="#7B7B7B"/>
</svg>
