<svg width="51" height="28" viewBox="0 0 51 28" fill="none" xmlns="http://www.w3.org/2000/svg">
<path d="M31.8801 3.97134C31.1984 6.89975 30.9178 8.25869 30.3564 10.3641C29.8151 12.3929 29.394 14.2878 28.6723 15.2065C27.9505 16.1443 26.9681 16.3357 26.3065 16.4123C25.9657 16.4506 25.705 16.4697 24.9632 16.4697C24.2214 16.4697 23.9608 16.4506 23.6199 16.4123C22.9583 16.3357 21.9759 16.1443 21.2542 15.2065C20.5324 14.2878 20.1114 12.3929 19.5901 10.3641C19.0287 8.23955 18.748 6.89975 18.0664 3.97134C18.0664 3.97134 17.3847 3.99048 17.084 4.00962C16.663 4.02876 16.3422 4.06704 16.0013 4.10532C16.0013 4.10532 16.4023 10.1344 16.5828 12.6991C16.7632 15.3787 17.104 19.9149 17.4048 23.3409C17.4048 23.3409 17.9862 23.4366 18.9485 23.4749C19.951 23.5323 20.4121 23.5323 20.4121 23.5323C20.8331 22.0203 21.3344 19.934 21.9158 19.0345C22.397 18.3071 23.1187 18.2306 23.5397 18.1732C24.1813 18.0966 24.7427 18.0775 24.9833 18.0775C25.2439 18.0775 25.7852 18.0775 26.4268 18.1732C26.8478 18.2306 27.5696 18.3071 28.0508 19.0345C28.6322 19.934 29.1535 22.0203 29.5544 23.5323C29.5544 23.5323 29.9955 23.5323 30.998 23.4749C31.9603 23.4175 32.5417 23.3409 32.5417 23.3409C32.8425 19.9149 33.1833 15.3979 33.3637 12.6991C33.5442 10.1535 33.9451 4.10532 33.9451 4.10532C33.6043 4.06704 33.2635 4.02876 32.8625 4.00962C32.5618 3.99048 31.8801 3.97134 31.8801 3.97134Z" fill="#7B7B7B"/>
<path d="M39.8396 7.53144C39.4386 3.70345 36.7521 2.89958 34.4063 2.51678C33.2235 2.32538 31.1183 2.17226 29.775 2.11484C28.5921 2.03828 25.8254 2 24.9833 2C24.1413 2 21.3745 2.03828 20.1916 2.11484C18.8484 2.17226 16.7432 2.32538 15.5603 2.51678C13.2146 2.89958 10.528 3.70345 10.1271 7.53144C10.0068 8.58413 9.98672 9.94306 10.0068 11.3977C10.0469 13.8285 10.2674 15.4554 10.3877 16.6038C10.4679 17.3885 10.8087 19.7236 11.2498 20.9294C11.8513 22.5945 12.3926 23.073 13.0342 23.5707C14.197 24.4703 16.1217 24.7574 16.5227 24.8339C18.688 25.1976 23.0586 25.2741 25.0034 25.2741C26.9281 25.2741 31.3188 25.2167 33.4841 24.8339C33.8851 24.7574 35.8098 24.4894 36.9726 23.5707C37.6142 23.073 38.1555 22.5945 38.757 20.9294C39.198 19.7236 39.5389 17.3694 39.6191 16.6038C39.7394 15.4745 39.9599 13.8285 40 11.3977C39.9799 9.92393 39.9399 8.56499 39.8396 7.53144ZM38.356 13.9624C38.1154 17.0248 37.8347 18.8623 37.4337 20.1829C37.0728 21.3505 36.6318 22.1161 35.9902 22.6711C34.9076 23.609 33.4239 23.8004 32.5418 23.9343C30.6572 24.2023 27.4694 24.298 24.9833 24.298C22.4772 24.298 19.3095 24.2023 17.4249 23.9343C16.5427 23.8004 15.0591 23.609 13.9765 22.6711C13.3349 22.1161 12.8938 21.3313 12.5329 20.1829C12.132 18.8623 11.8312 17.0248 11.6107 13.9624C11.4703 12.125 11.4904 9.13919 11.7109 7.53144C12.0117 5.11981 13.2547 3.91399 15.9212 3.47377C17.1642 3.26323 18.8484 3.11011 20.4322 3.03356C21.7154 2.957 23.8004 2.91872 24.9833 2.91872C26.1462 2.89958 28.2513 2.957 29.5144 3.03356C31.0983 3.11011 32.7824 3.26323 34.0254 3.47377C36.6919 3.93313 37.935 5.13895 38.2557 7.53144C38.4763 9.12005 38.4963 12.1059 38.356 13.9624Z" fill="#7B7B7B"/>
</svg>
