<svg width="51" height="28" viewBox="0 0 51 28" fill="none" xmlns="http://www.w3.org/2000/svg">
<path d="M35.918 8.53429C35.166 8.10948 34.375 7.76524 33.5767 7.45273C29.9975 6.14656 25.7885 5.69245 21.7918 6.2076C18.1077 6.74471 14.5261 7.6749 11.7185 10.3873C10.3757 11.713 9.57733 13.7053 10.2341 15.6193C11.091 17.946 13.3762 19.4939 15.4124 20.3948C21.4403 22.9852 29.6362 22.8948 35.4712 19.9285C37.4708 18.8567 39.7071 17.0769 39.983 14.5256C40.2198 11.7741 37.9371 9.70862 35.918 8.53429ZM22.4242 9.58167C22.9271 8.52941 23.8207 7.2916 25.056 7.27206C26.6894 7.25986 28.2641 7.41855 29.7876 7.70664C29.8462 7.71641 29.9023 7.72861 29.9585 7.73838C30.122 7.77256 30.2807 7.80674 30.4419 7.84092C31.2866 8.02891 32.1045 8.26329 32.8882 8.53917C32.937 8.57091 32.981 8.60753 33.0127 8.66368C33.0884 8.83703 32.937 8.94933 32.8516 9.06164C30.8838 10.7169 28.6303 11.6374 26.3305 12.4455C25.161 12.7507 23.9818 13.3024 22.6805 12.9972C22.3753 12.9142 22.0995 12.6994 21.9286 12.382C21.6063 11.4225 22.0433 10.4215 22.4242 9.58167ZM14.4675 18.1877C14.3503 18.3074 14.2356 18.3171 14.1208 18.2805C13.0246 17.5603 11.9065 16.5446 11.4157 15.2116C11.362 15.0505 11.3278 14.8918 11.301 14.7307C11.2912 14.6794 11.2815 14.6281 11.2741 14.5744C11.257 14.4182 11.2473 14.2619 11.2522 14.1081C11.2522 14.0886 11.2546 14.0715 11.2546 14.0544C11.3083 12.9557 11.9138 11.9499 12.5876 11.2882C14.6995 9.24475 17.3045 8.32677 19.9388 7.79209C20.0462 7.79209 20.1585 7.80674 20.2074 7.90684L20.1707 8.06065C17.6707 11.1149 16.0252 14.6623 14.4675 18.1877ZM27.2338 19.3645C26.7504 20.1702 25.996 20.8758 25.0878 20.9978C25.0536 20.9978 25.017 21.0003 24.9828 21.0003C24.6434 21.0003 24.309 20.9905 23.9745 20.9783C23.7792 20.9685 23.5839 20.9588 23.3885 20.9466C22.9906 20.9221 22.5951 20.888 22.2044 20.8465C21.8578 20.8074 21.5135 20.7659 21.1717 20.7122C20.9422 20.678 20.7127 20.6389 20.4857 20.5974C20.1805 20.5437 19.8802 20.4778 19.5799 20.4143C18.7254 20.2239 17.8978 19.9895 17.1043 19.7112C17.0677 19.6795 17.031 19.6428 17.0066 19.5989C16.9578 19.4548 17.0262 19.323 17.1189 19.2302C19.221 17.4016 21.721 16.552 24.1918 15.6633C25.1146 15.3776 26.0937 15.07 27.1288 15.2141C27.5561 15.2751 27.9833 15.5925 28.1371 16.0222C28.3642 17.2893 27.7465 18.3415 27.2338 19.3645ZM38.7428 14.1984C38.7379 14.3815 38.7183 14.5695 38.6793 14.76C38.6646 14.8308 38.6427 14.8967 38.6256 14.965C38.606 15.0334 38.5865 15.1018 38.5645 15.1701C38.0006 16.8401 36.3062 18.0632 34.9048 18.8152C33.5596 19.4988 32.0386 20.0286 30.4174 20.3972C30.288 20.4168 30.1587 20.4461 30.0268 20.4583C29.9511 20.4485 29.8266 20.468 29.8071 20.346L29.8364 20.2044C31.5649 18.1072 32.876 15.7561 34.0283 13.3757C34.5606 12.3014 35.0537 11.1979 35.5103 10.1139C35.5762 10.0333 35.6421 9.99183 35.7203 9.96253C35.7935 9.96741 35.857 9.99427 35.9253 10.0187C36.7798 10.5973 37.8882 11.5251 38.4278 12.7067C38.4376 12.7262 38.4449 12.7458 38.4547 12.7653C38.4986 12.8703 38.5401 12.9753 38.5767 13.0851C38.6231 13.2341 38.6671 13.3854 38.6964 13.5417C38.6988 13.5612 38.6988 13.5807 38.7037 13.6003C38.7305 13.7687 38.7428 13.9372 38.7428 14.1105C38.7452 14.1398 38.7428 14.1691 38.7428 14.1984Z" fill="#7B7B7B"/>
</svg>
