<svg width="51" height="28" viewBox="0 0 51 28" fill="none" xmlns="http://www.w3.org/2000/svg">
<path d="M25.94 6C17.69 6 11 9.441 11 13.688C11 17.935 17.69 21.376 25.94 21.376C34.19 21.376 40.88 17.935 40.88 13.688C40.88 9.441 34.19 6 25.94 6ZM25.94 20.725C18.05 20.725 11.69 17.594 11.69 13.688C11.69 9.782 18.05 6.651 25.94 6.651C33.83 6.651 40.19 9.813 40.19 13.688C40.19 17.563 33.83 20.725 25.94 20.725Z" fill="#7B7B7B"/>
<path d="M25.9399 6.92993C18.1999 6.92993 11.9299 9.96793 11.9299 13.6879C11.9299 17.4079 18.1999 20.4459 25.9399 20.4459C33.6799 20.4459 39.9499 17.4079 39.9499 13.6879C39.9499 9.96793 33.6799 6.92993 25.9399 6.92993ZM31.8799 12.1379L33.3199 11.4869H32.0599L32.3899 10.5259H34.8199L34.5199 11.4869L31.7899 12.4479L31.8799 12.1379ZM29.8999 9.03793C30.2299 9.03793 30.5899 9.13093 30.8899 9.28593C31.1599 9.47193 31.3699 9.78193 31.3999 10.1229C31.4299 10.5879 31.3699 11.0529 31.1899 11.4869C31.0099 11.9209 30.7099 12.2929 30.3499 12.5719C30.0199 12.8199 29.6299 12.9439 29.2099 12.9439H27.4699L28.6399 9.40993C28.6699 9.28593 28.6699 9.16193 28.6399 9.00693L29.8999 9.03793ZM24.9199 9.44093C24.9799 9.31693 24.9799 9.16193 24.9199 9.03793H26.0599L26.3899 10.8049L26.9899 9.03793H28.0699L26.6899 12.9439H25.6399L25.3399 11.2389L24.6799 12.9439H23.7199L24.9199 9.44093ZM22.1299 9.03793H23.2999L23.5099 12.9439H22.4299L22.3699 12.4479H21.2899L20.9299 12.9439H19.8499L22.0699 9.40993C22.1299 9.31693 22.1599 9.16193 22.1299 9.03793ZM18.4699 9.44093C18.4999 9.31693 18.4999 9.16193 18.4699 9.03793H19.7599L18.7699 12.0759H19.8799L19.5199 12.9749H17.2699L18.4699 9.44093ZM18.3199 15.1139L17.9599 16.0749H15.4999L15.8599 15.1139L18.5899 14.1529L18.4699 14.4629L17.0299 15.0829L18.3199 15.1139ZM22.3399 15.2999C22.2499 15.5479 22.0999 15.7339 21.8899 15.8889C21.7099 16.0439 21.4699 16.1369 21.2299 16.1679L21.9799 17.6249H20.8699L20.1499 16.2299L19.6699 17.6249H18.5599L19.7899 14.0909C19.8499 13.9669 19.8499 13.8119 19.7899 13.6879H21.3199C21.5599 13.6879 21.7999 13.7499 22.0399 13.8739C22.1899 13.9359 22.3099 14.0599 22.3999 14.2149C22.5199 14.5869 22.5199 14.9899 22.3399 15.2999ZM25.6699 16.7879C25.4299 17.0979 25.1299 17.3459 24.7699 17.5319C24.4399 17.6869 24.0799 17.7179 23.7199 17.6869C23.1799 17.5629 22.7599 17.1289 22.6399 16.5709C22.5499 16.1679 22.5499 15.7649 22.6699 15.3929C22.9099 14.6179 23.4799 13.9979 24.1999 13.7189C24.6499 13.5639 25.1299 13.6569 25.5199 13.9049C25.8199 14.1219 26.0299 14.4319 26.0899 14.8039C26.2699 15.4859 26.1199 16.2299 25.6699 16.7879ZM26.5699 17.6559L26.5099 14.1219C26.5099 13.9979 26.4799 13.8429 26.4199 13.7189H27.5899V15.8269L28.9699 13.7189H30.2299L27.4099 17.6869L26.5699 17.6559ZM31.5499 17.6559H29.1499L30.3199 14.2149C30.3799 14.0599 30.3799 13.8739 30.3199 13.7189H32.8699L32.5999 14.5869H31.3399L31.1299 15.2689H32.0899L31.7899 16.1369H30.8599C30.7699 16.3539 30.7099 16.5709 30.6499 16.8189H31.9099L31.5499 17.6559ZM35.8399 15.2999C35.7499 15.5479 35.5999 15.7649 35.3899 15.8889C35.2099 16.0439 34.9699 16.1369 34.7299 16.1679L35.4799 17.6249H34.3699L33.6499 16.2299L33.1699 17.6249H32.0599L33.2899 14.0909C33.3499 13.9669 33.3499 13.8119 33.2899 13.6879H34.8199C35.0599 13.6879 35.2999 13.7499 35.5099 13.8739C35.6599 13.9359 35.7799 14.0599 35.8699 14.2149C35.9899 14.5869 35.9899 14.9589 35.8399 15.2999Z" fill="#7B7B7B"/>
<path d="M29.39 11.983C29.51 11.921 29.6 11.859 29.69 11.766C29.84 11.611 29.96 11.425 30.02 11.208C30.17 10.805 30.38 10.03 29.9 10.03H29.63L28.94 12.045H29.21C29.27 12.045 29.33 12.014 29.39 11.983ZM34.46 14.68H34.22L34.01 15.331H34.31C34.7 15.331 35.09 14.68 34.46 14.68ZM20.96 14.68H20.72L20.51 15.331H20.81C21.26 15.331 21.59 14.68 20.96 14.68ZM22.37 11.58L22.31 10.743L21.83 11.58H22.37ZM24.17 14.866C23.93 15.145 23.78 15.517 23.75 15.889C23.72 16.106 23.75 16.323 23.81 16.509C23.9 16.726 24.17 16.819 24.38 16.695C24.44 16.664 24.5 16.633 24.53 16.571C24.89 16.168 25.07 15.61 24.98 15.052C24.95 14.804 24.71 14.618 24.47 14.68C24.32 14.711 24.23 14.773 24.17 14.866Z" fill="#7B7B7B"/>
</svg>
