<svg width="51" height="28" viewBox="0 0 51 28" fill="none" xmlns="http://www.w3.org/2000/svg">
<path d="M26 23.1935C30.3036 23.1935 34.1229 21.6896 36.4892 19.3742L34.3565 19.3827C32.3428 21.0778 29.3944 22.1442 26.0552 22.1442C19.8229 22.1442 14.9627 18.4311 14.9627 13.8513C14.9627 8.56638 19.8271 5.55854 26.0552 5.55854C26.4503 5.55854 26.769 5.74122 26.531 6.08534C25.2353 7.64449 21.5477 12.6618 20.8765 13.7494C19.551 15.8906 19.5807 18.5288 22.8307 18.7157H36.4935C37.1902 18.7157 37.3686 18.3886 37.6193 18.0487C38.5327 16.8125 39 15.3638 38.9958 13.8556C38.9915 9.91736 36.2216 6.969 32.1474 5.51605L31.5186 6.45919C34.9046 7.70821 37.1435 10.236 37.1435 13.8556C37.1435 14.4844 37.05 15.0961 36.8758 15.6866C36.7229 16.1964 36.4297 16.6298 35.869 16.6298H24.9676C23.5699 16.6298 24.1095 15.1896 24.6278 14.4886C25.3797 13.1419 29.4879 7.54252 30.4778 6.49743C30.7284 6.11507 31.4379 5.32063 30.4608 5.019C29.0716 4.68762 27.5676 4.51769 26 4.51769C18.8203 4.51344 13.0043 8.20102 13 13.8513C12.9958 19.5569 18.8203 23.1935 26 23.1935Z" fill="#7B7B7B"/>
</svg>
