<svg width="51" height="28" viewBox="0 0 51 28" fill="none" xmlns="http://www.w3.org/2000/svg">
<path d="M36.0218 6.35443C35.9366 6.23291 35.8172 6.09114 35.7319 5.96962C33.1739 2.70886 28.9959 2 25.4829 2C21.9359 2 17.6385 2.70886 15.1146 6.17215C15.0805 6.23291 15.0293 6.29367 14.9952 6.35443C13.7674 8.11646 13 10.6076 13 13.9696C13 24.3392 20.0941 26 25.4829 26C30.8888 26 38 24.3392 38 13.9696C38 10.6076 37.2497 8.0962 36.0218 6.35443ZM17.3486 7.99494C19.0368 4.91646 22.2258 4.16709 25.4829 4.16709C28.7401 4.16709 31.8779 4.87595 33.5832 7.89367C33.6173 7.95443 33.6514 8.03544 33.6855 8.11646C30.7694 10.162 27.4611 10.243 25.4829 15.3063C23.3172 10.3848 20.043 10.3443 17.178 8.37975C17.2292 8.25823 17.2974 8.13671 17.3486 7.99494ZM25.4829 23.8329C20.6398 23.8734 16.1207 22.2127 16.1207 13.9696C16.1207 13.362 16.1207 12.7342 16.206 12.2076C16.2231 12.0861 16.2572 11.9646 16.2742 11.843C17.8943 12.5316 19.4973 13.1797 21.1344 13.8278C23.0443 14.7595 24.3233 16.0962 25.4829 19.0937C26.6426 16.0962 27.8874 14.5772 29.8145 13.6456C31.4686 12.957 33.0887 12.2481 34.7428 11.5595C34.7599 11.6 34.7599 11.6608 34.7769 11.7013C34.8622 12.3696 34.8963 13.1595 34.8963 13.9696C34.9134 22.2127 30.3261 23.8937 25.4829 23.8329Z" fill="#7B7B7B"/>
</svg>
