<svg width="51" height="28" viewBox="0 0 51 28" fill="none" xmlns="http://www.w3.org/2000/svg">
<path d="M31.166 3.35C29.43 2.48 27.477 2 25.4 2C23.323 2 21.37 2.48 19.634 3.35C15.697 5.36 13 9.38 13 14C13 18.62 15.697 22.64 19.665 24.65C21.37 25.49 23.323 26 25.4 26C27.477 26 29.399 25.49 31.135 24.62C35.103 22.64 37.8 18.62 37.8 14C37.8 9.38 35.103 5.36 31.166 3.35ZM14.24 14C14.24 10.07 16.41 6.65 19.665 4.73C21.246 3.8 23.075 3.26 25.09 3.2L23.695 13.01L19.665 16.04L15.573 19.13C14.736 17.6 14.24 15.86 14.24 14ZM31.166 23.24C29.461 24.23 27.508 24.8 25.4 24.8C23.292 24.8 21.308 24.23 19.634 23.24C18.115 22.37 16.875 21.17 15.945 19.73L19.634 18.26L25.4 15.98L31.166 18.23L34.886 19.7C33.956 21.17 32.654 22.37 31.166 23.24ZM31.166 16.04L27.167 13.04L25.741 3.2C27.694 3.26 29.554 3.8 31.135 4.73C34.39 6.62 36.56 10.07 36.56 14C36.56 15.86 36.095 17.6 35.227 19.13L31.166 16.04Z" fill="#7B7B7B"/>
</svg>
